<svg width="0" height="0" class="hidden">
  <symbol viewBox="0 0 44 43" fill="none" xmlns="http://www.w3.org/2000/svg" id="arrow-left">
    <path fill-rule="evenodd" clip-rule="evenodd" d="M43.788 21.815a2.013 2.013 0 0 1-2.041 2.042l-32.085-.324a2.114 2.114 0 0 1-2.084-2.083 2.013 2.013 0 0 1 2.042-2.042l32.085.324a2.113 2.113 0 0 1 2.083 2.083z" fill="#fff"></path>
    <path fill-rule="evenodd" clip-rule="evenodd" d="M43.788 21.815a2.013 2.013 0 0 1-1.149 1.847L3.454 42.224a2.08 2.08 0 0 1-2.296-.365 2.087 2.087 0 0 1-.55-2.263L7.43 21.448.24 3.158A2.038 2.038 0 0 1 .744.907a2.047 2.047 0 0 1 2.29-.319l39.568 19.357a2.114 2.114 0 0 1 1.186 1.87zM5.991 6.591l5.567 14.159c.188.478.194 1.006.015 1.48L6.291 36.28l30.68-14.534L5.991 6.592z"
      fill="#fff"></path>
  </symbol>
  <symbol viewBox="0 0 24 13" fill="none" xmlns="http://www.w3.org/2000/svg" id="chevron-down">
    <path fill-rule="evenodd" clip-rule="evenodd" d="M1.159.476a1.625 1.625 0 0 1 2.298 0l8.6 8.6 8.602-8.6a1.625 1.625 0 0 1 2.298 2.298l-9.75 9.75a1.625 1.625 0 0 1-2.298 0l-9.75-9.75a1.625 1.625 0 0 1 0-2.298z" fill="#000"></path>
  </symbol>
  <symbol viewBox="0 0 8 14" fill="none" xmlns="http://www.w3.org/2000/svg" id="chevron-left">
    <path fill-rule="evenodd" clip-rule="evenodd" d="M7.707.293a1 1 0 0 1 0 1.414L2.414 7l5.293 5.293a1 1 0 1 1-1.414 1.414l-6-6a1 1 0 0 1 0-1.414l6-6a1 1 0 0 1 1.414 0z" fill="#000"></path>
  </symbol>
  <symbol viewBox="0 0 8 14" fill="none" xmlns="http://www.w3.org/2000/svg" id="chevron-right">
    <path fill-rule="evenodd" clip-rule="evenodd" d="M.293 13.707a1 1 0 0 1 0-1.414L5.586 7 .293 1.707A1 1 0 0 1 1.707.293l6 6a1 1 0 0 1 0 1.414l-6 6a1 1 0 0 1-1.414 0z" fill="#000"></path>
  </symbol>
  <symbol viewBox="0 0 89 111" fill="none" xmlns="http://www.w3.org/2000/svg" id="clock">
    <path d="M58.245 39.886l-15.267 27.94M39.83 24.068l-1.94-6.978 4.376-1.217-3.042-10.94a2.271 2.271 0 0 0-2.796-1.58L18.925 8.22a2.271 2.271 0 0 0-1.58 2.796l3.042 10.94 4.376-1.216 1.94 6.978m46.701-3.699l3.976-7.148c.132-.238.196-.508.17-.739-.026-.24-.132-.428-.3-.524l-8.287-4.752c-.166-.099-.38-.091-.592.005-.21.098-.41.29-.54.53l-3.975 7.146c-.133.238 9.417 5.722 9.548 5.482zm-17.722 81.784c21.929-6.096 34.697-29.054 28.519-51.277-6.178-22.224-28.964-35.297-50.892-29.2C11.379 31.422-1.388 54.38 4.79 76.603c6.178 22.223 28.964 35.297 50.892 29.2z"
      stroke="#353535" stroke-width="6" stroke-linecap="round" stroke-linejoin="round"></path>
  </symbol>
  <symbol viewBox="0 0 41 42" fill="none" xmlns="http://www.w3.org/2000/svg" id="like">
    <path fill-rule="evenodd" clip-rule="evenodd" d="M17.049 1.922A1.833 1.833 0 0 1 18.724.833a7.334 7.334 0 0 1 7.334 7.334v5.5h8.534a5.498 5.498 0 0 1 5.488 6.325l-2.53 16.5c0-.001 0 0 0 0a5.504 5.504 0 0 1-5.488 4.675H5.89a5.5 5.5 0 0 1-5.5-5.5V22.833a5.5 5.5 0 0 1 5.5-5.5h4.31l6.849-15.411zm-3.825 17.634L19.84 4.673a3.667 3.667 0 0 1 2.552 3.494V15.5c0 1.012.82 1.833 1.833 1.833h10.397a1.834 1.834 0 0 1 1.834 2.108l-2.53 16.5a1.833 1.833 0 0 1-1.833 1.559H13.224V19.556zM9.558 37.5V21H5.89a1.833 1.833 0 0 0-1.833 1.833v12.834A1.833 1.833 0 0 0 5.89 37.5h3.667z"
      fill="#000"></path>
  </symbol>
  <symbol viewBox="0 0 33 36" fill="none" xmlns="http://www.w3.org/2000/svg" id="user">
    <path fill-rule="evenodd" clip-rule="evenodd" d="M3.37 24.063A8.75 8.75 0 0 1 9.558 21.5h14a8.75 8.75 0 0 1 8.75 8.75v3.5a1.75 1.75 0 1 1-3.5 0v-3.5a5.25 5.25 0 0 0-5.25-5.25h-14a5.25 5.25 0 0 0-5.25 5.25v3.5a1.75 1.75 0 1 1-3.5 0v-3.5a8.75 8.75 0 0 1 2.562-6.187zM16.558 4a5.25 5.25 0 1 0 0 10.5 5.25 5.25 0 0 0 0-10.5zm-8.75 5.25a8.75 8.75 0 1 1 17.5 0 8.75 8.75 0 0 1-17.5 0z"
      fill="#000"></path>
  </symbol>
</svg>